<?xml version="1.0" encoding="iso-8859-1"?>
<!-- Uploaded to: SVG Repo, www.svgrepo.com, Generator: SVG Repo Mixer Tools -->
<svg fill="#285A53" height="800px" width="800px" version="1.1" id="Layer_1" xmlns="http://www.w3.org/2000/svg" xmlns:xlink="http://www.w3.org/1999/xlink" 
	 viewBox="0 0 512 512" xml:space="preserve">
<g>
	<g>
		<polygon points="369.967,166.828 358.515,182.502 347.073,198.175 255.948,322.926 164.927,198.175 153.495,182.502 
			142.054,166.828 45.098,166.828 45.098,383.592 60.771,383.592 76.445,383.592 435.555,383.592 451.229,383.592 466.902,383.592 
			466.902,166.828 		"/>
	</g>
</g>
<g>
	<g>
		<path d="M466.902,414.939h-15.674H60.771H45.098H0v96.946h512v-96.946H466.902z M266.836,472.837h-21.671v-21.682h21.671V472.837z
			"/>
	</g>
</g>
<g>
	<g>
		<polygon points="316.322,120.832 316.322,0.115 195.678,0.115 195.678,120.832 147.331,120.832 180.851,166.828 192.282,182.502 
			203.703,198.175 256,269.928 308.297,198.175 319.718,182.502 328.955,169.838 331.149,166.828 364.669,120.832 		"/>
	</g>
</g>
</svg>